<?xml version="1.0" standalone="no"?>
<!DOCTYPE svg PUBLIC "-//W3C//DTD SVG 1.1//EN" "http://www.w3.org/Graphics/SVG/1.1/DTD/svg11.dtd">
<svg xmlns="http://www.w3.org/2000/svg" width="128" height="128" viewBox="0 0 128 128" fill="none">
<mask id="mask0_155_195" style="mask-type:alpha" maskUnits="userSpaceOnUse" x="52" y="41" width="35" height="43">
<path d="M56.7789 44.7527C53.7301 45.4443 53.2445 48.8848 53.3829 50.5186C55.8185 59.4212 60.8306 77.7524 61.3946 79.857C61.9585 81.9615 64.7502 82.5082 65.8661 82.5748L79.2772 78.981C80.4561 78.3517 85.7138 75.0631 85.868 67.8162C85.9914 62.0187 80.7278 59.0641 78.0804 58.3115C80.4087 54.9307 80.4199 51.21 80.1343 49.7723C78.7057 41.7591 71.6055 41.0406 68.2341 41.683C65.6861 42.418 59.8277 44.061 56.7789 44.7527Z" fill="black" stroke="black"/>
</mask>
<g mask="url(#mask0_155_195)">
<path d="M75.9167 39.6208L49.374 46.7335L50.3139 50.241L76.8566 43.1283L75.9167 39.6208Z" fill="white"/>
<path d="M79.9195 44.5005L62.0381 49.2922L62.978 52.7998L80.8594 48.0081L79.9195 44.5005Z" fill="white"/>
<path d="M81.4079 50.0542L68.5557 53.4982L69.4956 57.0058L82.3479 53.5617L81.4079 50.0542Z" fill="white"/>
<path d="M82.0184 55.6863L46.8145 65.12L47.7544 68.6276L82.9584 59.1938L82.0184 55.6863Z" fill="white"/>
<path d="M86.4184 60.9297L67.4194 66.0209L68.3594 69.5284L87.3583 64.4372L86.4184 60.9297Z" fill="white"/>
<path d="M87.3479 66.633L71.7017 70.8257L72.6416 74.3333L88.2878 70.1405L87.3479 66.633Z" fill="white"/>
<path d="M86.7573 73.3702L59.3765 80.7076L60.3164 84.2151L87.6972 76.8777L86.7573 73.3702Z" fill="white"/>
</g>
<path d="M43.1826 66.0933L60.2258 61.5262L61.1658 65.0338L45.8029 69.1506L43.1826 66.0933Z" fill="white"/>
<path d="M49.4734 74.4326L47.3418 71.5576L54.3267 69.6858L53.8276 73.2658L49.4734 74.4326Z" fill="white"/>
<path d="M54.1975 85.6982L50.6646 76.6198L54.1388 75.6887L55.8557 85.2538L54.1975 85.6982Z" fill="white"/>
<path d="M42.126 57.2627C41.6288 60.1222 44.2579 61.879 45.6347 62.3999C43.7768 60.2544 44.2594 57.6407 44.3336 57.2936C44.3336 57.2936 45.4069 54.3136 45.6422 51.8418C45.885 49.2905 44.5674 46.791 43.9202 45.8646C44.1146 47.7394 44.3418 51.8438 43.6954 53.2635C43.0489 54.6832 42.3798 56.5212 42.126 57.2627Z" fill="white"/>
<path d="M47.2086 54.0626C48.0023 52.1976 46.9341 49.1479 46.3008 47.8561C46.7876 48.3399 47.9114 49.8952 48.5118 52.2457C49.2623 55.1839 48.5323 56.5605 48.0533 58.1208C47.6701 59.3691 48.2858 61.6034 48.6415 62.5645C48.2212 62.4479 47.157 61.8218 46.2624 60.2495C45.144 58.2842 46.2163 56.3937 47.2086 54.0626Z" fill="white"/>
<path d="M50.0526 57.1417C49.3266 58.9942 49.7344 61.34 49.962 62.0439C52.5315 60.0075 52.5884 58.5203 52.3 55.7293C52.0693 53.4965 50.7336 51.4931 50.0946 50.7705C50.9875 52.0931 50.7373 55.3945 50.0526 57.1417Z" fill="white"/>
<rect x="31" y="28" width="67" height="67" rx="33.5" stroke="white" stroke-width="2"/>
<rect x="7.5" y="7.5" width="113" height="113" rx="56.5" stroke="white"/>
<rect x="1" y="1" width="126" height="126" rx="63" stroke="white" stroke-width="2"/>
<path d="M21.457 71.8648L12.7672 72.673L12.4847 69.635C12.4284 69.0296 12.4866 68.5206 12.6593 68.108C12.8293 67.6956 13.0807 67.3769 13.4135 67.1519C13.7436 66.9272 14.1207 66.7951 14.545 66.7557C14.9184 66.7209 15.2329 66.7587 15.4886 66.869C15.7439 66.9765 15.9523 67.1312 16.1138 67.333C16.2749 67.532 16.401 67.7528 16.4921 67.9954L16.5769 67.9875C16.5692 67.7201 16.6377 67.4441 16.7824 67.1596C16.9271 66.8751 17.1495 66.6275 17.4495 66.417C17.7494 66.2065 18.1285 66.08 18.5868 66.0373C19.0224 65.9968 19.4234 66.0594 19.7897 66.225C20.1561 66.3907 20.461 66.6776 20.7044 67.0858C20.9478 67.494 21.1013 68.0404 21.165 68.7249L21.457 71.8648ZM20.4257 70.8993L20.2315 68.8117C20.1675 68.1244 19.9892 67.6488 19.6965 67.385C19.4007 67.1186 19.0618 67.0032 18.6799 67.0387C18.3857 67.0661 18.1212 67.1663 17.8862 67.3394C17.6484 67.5127 17.4674 67.7449 17.3433 68.0361C17.2163 68.3275 17.1704 68.6628 17.2057 69.0418L17.4046 71.1803L20.4257 70.8993ZM16.4881 71.2655L16.3066 69.3137C16.2771 68.9969 16.1883 68.717 16.0401 68.474C15.8917 68.2282 15.6974 68.0408 15.4572 67.9119C15.2167 67.7802 14.9437 67.7286 14.6382 67.757C14.2563 67.7925 13.9448 67.9556 13.7036 68.2462C13.4596 68.5371 13.3645 68.9711 13.4181 69.5482L13.6028 71.5339L16.4881 71.2655Z" fill="white"/>
<path d="M18.5367 60.3848L14.6764 60.1215L14.7448 59.1182L21.2751 59.5636L21.2067 60.567L20.1013 60.4916L20.0966 60.5596C20.4178 60.7352 20.6836 60.9926 20.894 61.3315C21.1015 61.6703 21.1884 62.0863 21.1548 62.5795C21.127 62.9876 21.0129 63.3443 20.8127 63.6496C20.6097 63.9546 20.3206 64.1855 19.9454 64.3421C19.5674 64.4986 19.1006 64.5579 18.5451 64.52L14.3957 64.2369L14.4641 63.2336L18.5455 63.512C19.0217 63.5445 19.4106 63.4372 19.7122 63.1901C20.014 62.9402 20.1791 62.6069 20.2075 62.1902C20.2245 61.9408 20.1781 61.6828 20.0681 61.4162C19.9583 61.1467 19.7777 60.9151 19.5261 60.7214C19.2746 60.5249 18.9449 60.4127 18.5367 60.3848Z" fill="white"/>
<path d="M17.5012 52.7129L17.5546 53.6503C17.3952 53.6731 17.2342 53.7231 17.0715 53.8004C16.9066 53.8743 16.7581 53.9926 16.6258 54.1553C16.4936 54.3179 16.3957 54.5421 16.3322 54.8277C16.2452 55.2187 16.2628 55.5646 16.3851 55.8654C16.5051 56.1628 16.7025 56.342 16.977 56.4031C17.221 56.4574 17.4335 56.4115 17.6144 56.2655C17.7953 56.1195 17.9749 55.8684 18.1531 55.5122L18.5971 54.6157C18.8628 54.0753 19.1697 53.6968 19.5176 53.4803C19.8628 53.2631 20.2586 53.2042 20.7051 53.3035C21.0711 53.385 21.3749 53.5632 21.6164 53.8381C21.8585 54.1103 22.0211 54.452 22.1042 54.8634C22.1873 55.2748 22.1736 55.7287 22.0632 56.2251C21.9182 56.8767 21.6568 57.3846 21.2789 57.7488C20.901 58.1129 20.4277 58.2913 19.8589 58.2841L19.8332 57.3005C20.1968 57.2883 20.4921 57.1779 20.7189 56.9693C20.9464 56.758 21.1048 56.4513 21.1943 56.0492C21.2961 55.5916 21.2799 55.2068 21.1456 54.8946C21.0092 54.579 20.8037 54.3907 20.5292 54.3296C20.3073 54.2802 20.1042 54.3166 19.9199 54.4385C19.7329 54.5599 19.5661 54.7731 19.4197 55.0781L18.9332 56.0874C18.6643 56.6417 18.3538 57.0237 18.0015 57.2335C17.6471 57.4398 17.2494 57.494 16.8085 57.3959C16.448 57.3157 16.1516 57.1435 15.9193 56.8793C15.6877 56.6124 15.532 56.2853 15.4523 55.8979C15.3732 55.5078 15.3836 55.0881 15.4836 54.6389C15.6243 54.0066 15.8734 53.5411 16.2309 53.2423C16.589 52.9407 17.0125 52.7643 17.5012 52.7129Z" fill="white"/>
<path d="M23.0519 52.0009L16.8526 49.9006L17.1753 48.9481L23.3746 51.0484L23.0519 52.0009ZM15.9834 49.0663C15.9205 49.2519 15.8031 49.3906 15.631 49.4823C15.4599 49.5713 15.2855 49.5857 15.108 49.5255C14.9304 49.4654 14.8007 49.3479 14.7189 49.1732C14.638 48.9959 14.629 48.8144 14.6919 48.6287C14.7548 48.443 14.8718 48.3057 15.043 48.2167C15.215 48.125 15.3898 48.1093 15.5674 48.1694C15.745 48.2296 15.8742 48.3484 15.9551 48.5257C16.0369 48.7004 16.0463 48.8806 15.9834 49.0663Z" fill="white"/>
<path d="M20.6414 47.0843L24.203 48.7633L23.7741 49.673L17.8536 46.8818L18.2679 46.003L19.193 46.4391L19.2293 46.362C18.9941 46.0815 18.8519 45.757 18.8027 45.3883C18.751 45.0184 18.8305 44.6099 19.0413 44.1628C19.2302 43.7619 19.4778 43.4499 19.784 43.2268C20.0876 43.0025 20.4446 42.8849 20.8548 42.8742C21.2625 42.8622 21.7181 42.9749 22.2218 43.2124L25.9838 44.9859L25.5549 45.8955L21.8546 44.1511C21.3895 43.9318 20.9702 43.8818 20.5968 44.001C20.2208 44.119 19.9335 44.3887 19.7348 44.8101C19.598 45.1005 19.5386 45.3897 19.5567 45.6778C19.576 45.9632 19.6755 46.2285 19.8553 46.4734C20.035 46.7183 20.2971 46.9219 20.6414 47.0843Z" fill="white"/>
<path d="M28.6928 40.9255C28.3363 41.4457 27.914 41.8158 27.4258 42.0358C26.9368 42.2517 26.4151 42.3195 25.8606 42.2392C25.3053 42.1549 24.7512 41.9232 24.1981 41.5443C23.6451 41.1653 23.2267 40.7305 22.9429 40.2399C22.6585 39.7453 22.5224 39.2353 22.5346 38.7099C22.5461 38.1805 22.7188 37.6721 23.0528 37.1847C23.2455 36.9035 23.4827 36.6579 23.7643 36.4479C24.0459 36.238 24.3693 36.0928 24.7344 36.0123C25.0971 35.9303 25.4965 35.9405 25.9325 36.043C26.3685 36.1454 26.8385 36.3693 27.3423 36.7146L27.6939 36.9555L24.8418 41.1175L24.1247 40.6261L26.3986 37.3077C26.094 37.099 25.7804 36.9736 25.4578 36.9317C25.1369 36.8874 24.831 36.9292 24.5402 37.0571C24.251 37.1826 24.0036 37.3954 23.7981 37.6953C23.5716 38.0258 23.4577 38.3679 23.4564 38.7217C23.4543 39.0715 23.5391 39.4 23.7109 39.7071C23.8827 40.0143 24.1174 40.2698 24.4151 40.4738L24.8931 40.8014C25.3009 41.0808 25.6948 41.2474 26.0747 41.3011C26.4538 41.3508 26.804 41.2997 27.125 41.1478C27.4438 40.9943 27.718 40.7499 27.9476 40.4148C28.0969 40.1969 28.2014 39.9791 28.2609 39.7616C28.3197 39.5402 28.3311 39.3224 28.2952 39.1084C28.257 38.8928 28.1682 38.6856 28.0289 38.4869L28.8031 37.8395C29.0171 38.1102 29.159 38.4158 29.2287 38.7563C29.2961 39.0952 29.2869 39.4505 29.201 39.8221C29.1127 40.1921 28.9433 40.5599 28.6928 40.9255Z" fill="white"/>
<path d="M30.1434 31.0716L29.7148 31.907C29.5659 31.8459 29.4017 31.8075 29.2222 31.7918C29.0426 31.772 28.8546 31.7988 28.6582 31.8721C28.4618 31.9454 28.2639 32.0891 28.0645 32.3033C27.7915 32.5964 27.6315 32.9036 27.5846 33.2248C27.5376 33.5421 27.617 33.7966 27.8228 33.9883C28.0057 34.1586 28.2122 34.2267 28.4421 34.1924C28.6721 34.1581 28.954 34.0325 29.2881 33.8156L30.1249 33.2673C30.6277 32.9359 31.084 32.7649 31.4936 32.7544C31.9012 32.7419 32.2724 32.8916 32.6071 33.2033C32.8815 33.4589 33.0532 33.7664 33.1223 34.1257C33.1932 34.483 33.1604 34.8601 33.0237 35.2569C32.8871 35.6537 32.6454 36.0382 32.2988 36.4103C31.8438 36.8988 31.3612 37.2044 30.8509 37.327C30.3407 37.4497 29.8422 37.3639 29.3553 37.0696L29.8313 36.2085C30.151 36.382 30.4615 36.4363 30.7627 36.3714C31.0659 36.3043 31.3579 36.1201 31.6386 35.8186C31.9581 35.4756 32.139 35.1355 32.1813 34.7984C32.2235 34.4572 32.1416 34.1907 31.9358 33.999C31.7695 33.8441 31.576 33.7726 31.3553 33.7844C31.1326 33.7944 30.8808 33.8938 30.6001 34.0826L29.6694 34.7066C29.1569 35.0484 28.6957 35.2206 28.2857 35.2231C27.8756 35.2216 27.5053 35.0669 27.1748 34.759C26.9045 34.5073 26.7361 34.2087 26.6696 33.8634C26.605 33.5159 26.6364 33.155 26.7638 32.7806C26.8932 32.4041 27.1147 32.0475 27.4284 31.7108C27.8698 31.2368 28.3204 30.9615 28.78 30.8849C29.2415 30.8062 29.696 30.8684 30.1434 31.0716Z" fill="white"/>
<path d="M35.5415 26.4947L34.9954 27.2583C34.857 27.1762 34.7002 27.1142 34.525 27.0724C34.3502 27.0266 34.1603 27.0256 33.9553 27.0694C33.7503 27.1132 33.5335 27.2264 33.3049 27.4091C32.9919 27.6591 32.7888 27.9396 32.6954 28.2506C32.6025 28.5576 32.6438 28.8209 32.8194 29.0406C32.9755 29.2359 33.1697 29.3334 33.4022 29.3331C33.6347 29.3328 33.932 29.2498 34.2942 29.0841L35.2022 28.664C35.748 28.4097 36.2244 28.3073 36.6312 28.3567C37.0363 28.404 37.3815 28.6063 37.6671 28.9636C37.9011 29.2566 38.0261 29.5859 38.0418 29.9515C38.0598 30.3153 37.9722 30.6835 37.7789 31.0561C37.5857 31.4287 37.2905 31.7737 36.8932 32.0911C36.3716 32.5078 35.8495 32.7396 35.3268 32.7863C34.8042 32.833 34.3235 32.6752 33.8849 32.3129L34.4817 31.5306C34.7726 31.7491 35.0718 31.8482 35.3793 31.828C35.689 31.806 36.0048 31.6664 36.3266 31.4093C36.6928 31.1167 36.9215 30.8067 37.0126 30.4793C37.1042 30.1479 37.0622 29.8724 36.8867 29.6527C36.7448 29.4751 36.5638 29.3761 36.3438 29.3555C36.122 29.3328 35.8584 29.3943 35.553 29.5401L34.5412 30.0213C33.9842 30.2845 33.5028 30.3874 33.0968 30.3299C32.6913 30.2684 32.3476 30.0612 32.0656 29.7083C31.8351 29.4198 31.7122 29.0999 31.6969 28.7485C31.6838 28.3953 31.7676 28.0428 31.9484 27.6911C32.1314 27.3376 32.4027 27.0172 32.7622 26.7299C33.2682 26.3256 33.7542 26.1191 34.2201 26.1105C34.6881 26.1002 35.1286 26.2282 35.5415 26.4947Z" fill="white"/>
<path d="M46.2467 19.5762L45.2898 20.0248C45.1042 19.7761 44.8918 19.5808 44.6526 19.4387C44.416 19.2955 44.1643 19.2002 43.8973 19.1527C43.6317 19.1016 43.3611 19.0966 43.0856 19.138C42.81 19.1793 42.5411 19.2614 42.2787 19.3844C41.8002 19.6087 41.4235 19.9328 41.1484 20.3567C40.8759 20.7794 40.7356 21.2798 40.7273 21.8578C40.7216 22.4347 40.8792 23.0652 41.1999 23.7494C41.5207 24.4336 41.9046 24.9581 42.3517 25.3227C42.8013 25.6861 43.2757 25.8982 43.7749 25.9591C44.2766 26.0188 44.7667 25.9365 45.2452 25.7122C45.5076 25.5892 45.7428 25.435 45.9508 25.2497C46.1588 25.0643 46.3287 24.8544 46.4604 24.6201C46.5935 24.382 46.6807 24.1262 46.7219 23.8527C46.7645 23.5755 46.7502 23.2873 46.679 22.9881L47.6359 22.5395C47.7532 22.9771 47.7914 23.4 47.7506 23.8082C47.7098 24.2164 47.6003 24.5987 47.4223 24.9552C47.2431 25.309 47.0044 25.6264 46.7062 25.9074C46.4107 26.1871 46.0635 26.4205 45.6648 26.6074C44.9909 26.9233 44.3144 27.0397 43.6353 26.9564C42.9562 26.8732 42.3239 26.5986 41.7383 26.1326C41.1528 25.6666 40.6646 25.017 40.2739 24.1835C39.8832 23.3501 39.696 22.5593 39.7124 21.8112C39.7288 21.063 39.9222 20.4013 40.2925 19.8261C40.6629 19.2508 41.1851 18.8052 41.859 18.4893C42.2577 18.3024 42.6591 18.1848 43.0632 18.1366C43.4699 18.0871 43.8672 18.1079 44.255 18.1991C44.6417 18.2876 45.0049 18.4468 45.3448 18.6765C45.6835 18.9037 45.9841 19.2036 46.2467 19.5762Z" fill="white"/>
<path d="M52.5311 24.1413C51.9227 24.3073 51.3612 24.3161 50.8467 24.1679C50.3341 24.0162 49.8925 23.7303 49.5217 23.3102C49.1529 22.8867 48.8803 22.3515 48.7039 21.7046C48.5274 21.0578 48.4898 20.4556 48.5909 19.898C48.694 19.3368 48.9203 18.8599 49.2696 18.4672C49.6209 18.071 50.0816 17.7952 50.6517 17.6397C50.9806 17.55 51.3203 17.5162 51.6709 17.5384C52.0214 17.5605 52.3619 17.6591 52.6923 17.834C53.022 18.0061 53.3199 18.2723 53.586 18.6326C53.8521 18.9929 54.0655 19.4677 54.2263 20.0569L54.3384 20.4681L49.4708 21.7958L49.242 20.9571L53.123 19.8985C53.0258 19.5422 52.8678 19.2437 52.649 19.003C52.433 18.7616 52.1727 18.5956 51.8682 18.5049C51.5665 18.4134 51.2402 18.4156 50.8894 18.5113C50.503 18.6167 50.1947 18.8038 49.9648 19.0727C49.7368 19.338 49.5889 19.6434 49.5212 19.9887C49.4534 20.3341 49.467 20.6808 49.562 21.0289L49.7145 21.588C49.8446 22.0649 50.037 22.4467 50.292 22.7335C50.5489 23.0168 50.8489 23.2044 51.192 23.2963C51.5343 23.3855 51.9015 23.3767 52.2934 23.2697C52.5483 23.2002 52.7688 23.1018 52.9549 22.9745C53.143 22.8436 53.2926 22.685 53.4038 22.4987C53.5141 22.3095 53.5805 22.0941 53.6029 21.8524L54.6121 21.8599C54.6001 22.2047 54.5105 22.5295 54.3434 22.8342C54.1754 23.1362 53.9385 23.4011 53.6325 23.6289C53.3258 23.8539 52.9587 24.0247 52.5311 24.1413Z" fill="white"/>
<path d="M56.6955 19.0813L57.1055 22.9974L56.1052 23.1021L55.4238 16.5923L56.3901 16.4911L56.4966 17.5083L56.5813 17.4994C56.6993 17.1528 56.9032 16.863 57.193 16.6298C57.4825 16.3939 57.8731 16.2502 58.3647 16.1987C58.8055 16.1526 59.2006 16.2026 59.5501 16.3488C59.8993 16.4922 60.1848 16.7365 60.4067 17.0818C60.6282 17.4242 60.7679 17.8724 60.8259 18.4261L61.2589 22.5626L60.2587 22.6673L59.8328 18.5987C59.7792 18.0873 59.6047 17.7028 59.3093 17.4452C59.0135 17.1848 58.6339 17.0789 58.1706 17.1274C57.8513 17.1608 57.5731 17.2599 57.3362 17.4247C57.102 17.5891 56.9268 17.8117 56.8105 18.0924C56.6942 18.3731 56.6559 18.7027 56.6955 19.0813Z" fill="white"/>
<path d="M66.5248 16.0802L66.4959 16.932L63.1058 16.8173L63.1347 15.9655L66.5248 16.0802ZM64.1758 14.4316L65.1809 14.4656L64.9699 20.7007C64.9603 20.9846 64.9942 21.199 65.0718 21.3437C65.1523 21.4857 65.257 21.5831 65.3859 21.6358C65.5179 21.6857 65.6576 21.7132 65.8053 21.7182C65.916 21.7219 66.0071 21.7193 66.0784 21.7104C66.1499 21.6986 66.2071 21.6891 66.2499 21.6821L66.4238 22.5919C66.3548 22.6151 66.2588 22.6375 66.1359 22.6589C66.0128 22.6831 65.8576 22.6921 65.6702 22.6858C65.3863 22.6761 65.1101 22.6057 64.8417 22.4744C64.576 22.3432 64.358 22.1496 64.1876 21.8937C64.02 21.6379 63.9427 21.3197 63.9556 20.9393L64.1758 14.4316Z" fill="white"/>
<path d="M70.5668 23.2761C69.9444 23.1739 69.4301 22.9484 69.0239 22.5996C68.6209 22.2485 68.3381 21.8048 68.1757 21.2686C68.0165 20.73 67.9912 20.1299 68.0998 19.4683C68.2084 18.8067 68.4246 18.2434 68.7485 17.7783C69.0757 17.3109 69.4798 16.9713 69.9608 16.7595C70.4451 16.5453 70.9788 16.4861 71.5619 16.5818C71.8983 16.637 72.2213 16.7476 72.5309 16.9136C72.8405 17.0796 73.1091 17.3108 73.3368 17.6073C73.565 17.9009 73.7252 18.2669 73.8173 18.7053C73.9095 19.1436 73.9061 19.6641 73.8072 20.2668L73.7382 20.6873L68.7593 19.8702L68.9001 19.0123L72.8697 19.6639C72.9295 19.2994 72.91 18.9623 72.8112 18.6524C72.7151 18.343 72.5475 18.0837 72.3084 17.8746C72.072 17.666 71.7744 17.5322 71.4155 17.4733C71.0203 17.4084 70.6621 17.4504 70.3412 17.5992C70.0235 17.7457 69.762 17.9619 69.5568 18.2478C69.3515 18.5337 69.2196 18.8546 69.1612 19.2107L69.0673 19.7826C68.9873 20.2703 69.0035 20.6976 69.116 21.0645C69.2318 21.4289 69.4266 21.7243 69.7004 21.9506C69.9746 22.1741 70.3122 22.3188 70.7131 22.3846C70.9738 22.4274 71.2153 22.4296 71.4375 22.3912C71.663 22.3505 71.865 22.2685 72.0436 22.1452C72.2226 22.0191 72.3726 21.8509 72.4935 21.6404L73.4081 22.0669C73.2538 22.3755 73.0373 22.6336 72.7585 22.8412C72.4802 23.046 72.1545 23.1883 71.7815 23.2682C71.409 23.3452 71.0041 23.3478 70.5668 23.2761Z" fill="white"/>
<path d="M74.1885 23.886L76.058 17.6132L76.9892 17.8907L76.7068 18.8382L76.7721 18.8576C76.979 18.5814 77.261 18.3912 77.618 18.2871C77.9751 18.1831 78.3415 18.1871 78.7173 18.299C78.788 18.3201 78.8761 18.3479 78.9815 18.3822C79.0869 18.4166 79.166 18.4446 79.2188 18.4663L78.9267 19.4464C78.8964 19.4285 78.8252 19.394 78.713 19.3427C78.6043 19.2896 78.486 19.2439 78.3581 19.2058C78.0531 19.1149 77.7618 19.0978 77.4841 19.1543C77.2099 19.209 76.9701 19.3272 76.7647 19.5091C76.5629 19.689 76.4198 19.9206 76.3354 20.2037L75.1523 24.1732L74.1885 23.886Z" fill="white"/>
<path d="M81.3103 26.3467L80.3394 25.8131L87.3514 19.7085L88.3074 20.2339L86.912 29.4256L85.9411 28.892L87.1942 21.1976L87.1345 21.1647L81.3103 26.3467ZM83.3109 23.5562L87.2246 25.7073L86.773 26.5289L82.8593 24.3778L83.3109 23.5562Z" fill="white"/>
<path d="M90.0106 32.0095C89.531 31.6267 89.2083 31.1839 89.0426 30.681C88.8769 30.1781 88.8593 29.6535 88.99 29.1072C89.1206 28.5608 89.3896 28.0323 89.7972 27.5215C90.2118 27.0019 90.6731 26.6195 91.1813 26.3744C91.6934 26.1288 92.211 26.0312 92.7342 26.0815C93.2613 26.1314 93.7559 26.3406 94.2178 26.7091C94.5775 26.9962 94.8486 27.3215 95.031 27.6851C95.2133 28.0486 95.301 28.4239 95.294 28.8108C95.2869 29.1977 95.1781 29.5687 94.9673 29.9239L94.1812 29.2967C94.3073 29.0157 94.3388 28.7029 94.2758 28.3582C94.2168 28.0131 94.0141 27.7024 93.6677 27.426C93.3612 27.1814 93.0287 27.047 92.6702 27.0226C92.3157 26.9978 91.9588 27.0783 91.5997 27.2643C91.2446 27.4497 90.9128 27.7357 90.6045 28.1221C90.2892 28.5174 90.0767 28.9112 89.9672 29.3035C89.8599 29.6977 89.8559 30.067 89.9553 30.4116C90.0569 30.758 90.2632 31.0552 90.5741 31.3033C90.7784 31.4663 90.9922 31.5787 91.2154 31.6405C91.4387 31.7023 91.6612 31.7127 91.883 31.6716C92.1047 31.6305 92.3145 31.5362 92.5122 31.3886L93.2983 32.0158C93.0129 32.2824 92.6859 32.4667 92.3174 32.5688C91.9528 32.6704 91.5706 32.678 91.1707 32.5916C90.7749 32.5047 90.3882 32.3107 90.0106 32.0095Z" fill="white"/>
<path d="M94.0864 35.7517C93.8032 35.4486 93.6033 35.1202 93.4867 34.7665C93.3722 34.4109 93.356 34.0586 93.4382 33.7096C93.5225 33.3587 93.7204 33.0378 94.0318 32.7469C94.3058 32.4909 94.5783 32.3374 94.8494 32.2863C95.1226 32.2333 95.3923 32.2515 95.6586 32.341C95.9249 32.4304 96.1837 32.5618 96.4351 32.7352C96.6905 32.9087 96.9365 33.0929 97.1731 33.2879C97.4819 33.5436 97.7301 33.7531 97.9175 33.9162C98.1089 34.0795 98.2673 34.1804 98.3926 34.2188C98.5199 34.2593 98.6427 34.2243 98.761 34.1137L98.7859 34.0905C99.0932 33.8034 99.2533 33.4963 99.2665 33.1691C99.2816 32.844 99.131 32.5123 98.8149 32.1739C98.4872 31.8231 98.1534 31.6198 97.8136 31.564C97.4738 31.5082 97.1789 31.5213 96.9288 31.6033L96.5263 30.673C96.9333 30.5261 97.3147 30.4808 97.6706 30.5371C98.0305 30.5935 98.358 30.7152 98.6531 30.9021C98.9523 31.0892 99.2144 31.3031 99.4393 31.5439C99.5828 31.6975 99.729 31.8914 99.8778 32.1256C100.031 32.36 100.138 32.6229 100.201 32.9145C100.265 33.2081 100.242 33.5229 100.132 33.8589C100.023 34.1948 99.7776 34.5403 99.3977 34.8952L96.2465 37.8392L95.5599 37.1043L96.2076 36.4992L96.1727 36.4618C96.0224 36.509 95.8337 36.5297 95.6068 36.524C95.3799 36.5183 95.1347 36.4577 94.8713 36.3422C94.6079 36.2267 94.3462 36.0299 94.0864 35.7517ZM94.8512 35.2471C95.1228 35.5377 95.4087 35.7293 95.7091 35.822C96.0113 35.9167 96.3003 35.9305 96.576 35.8635C96.8535 35.7986 97.092 35.673 97.2913 35.4868L97.9639 34.8585C97.8974 34.8622 97.7991 34.8257 97.6691 34.7489C97.5431 34.6723 97.4046 34.5761 97.2538 34.4605C97.107 34.3449 96.9651 34.2306 96.8283 34.1174C96.6955 34.0043 96.587 33.9132 96.5029 33.844C96.2996 33.6763 96.0923 33.5356 95.8811 33.4219C95.6739 33.3083 95.4678 33.252 95.2627 33.2531C95.0617 33.2543 94.8678 33.3422 94.6809 33.5167C94.4256 33.7553 94.3208 34.0301 94.3665 34.3412C94.4162 34.6524 94.5778 34.9544 94.8512 35.2471Z" fill="white"/>
<path d="M98.3753 40.9707C98.0707 40.5182 97.916 40.0418 97.9114 39.5415C97.9091 39.0396 98.0519 38.5496 98.3397 38.0716C98.6298 37.592 99.0624 37.1587 99.6374 36.7716C100.208 36.3876 100.768 36.1522 101.32 36.0654C101.871 35.9786 102.378 36.0326 102.841 36.2275C103.305 36.4224 103.69 36.7484 103.998 37.2056C104.236 37.5591 104.365 37.878 104.386 38.1624C104.41 38.4475 104.384 38.6942 104.309 38.9026C104.237 39.1117 104.175 39.2787 104.122 39.4034L104.169 39.4741L106.842 37.6749L107.403 38.5092L100.164 43.3831L99.6212 42.5771L100.455 42.0155L100.389 41.9165C100.249 41.9219 100.065 41.9188 99.838 41.9072C99.6134 41.894 99.3716 41.8222 99.1125 41.6918C98.8558 41.5598 98.6101 41.3194 98.3753 40.9707ZM99.2008 40.5793C99.4261 40.9139 99.7037 41.138 100.034 41.2515C100.366 41.3635 100.728 41.3748 101.12 41.2856C101.514 41.1948 101.916 41.0113 102.326 40.7353C102.732 40.4624 103.047 40.1647 103.272 39.8422C103.499 39.5181 103.619 39.1835 103.633 38.8383C103.65 38.4915 103.544 38.1485 103.315 37.8091C103.077 37.4556 102.788 37.2221 102.448 37.1086C102.112 36.9959 101.75 36.9846 101.362 37.0746C100.978 37.1654 100.595 37.3393 100.213 37.5963C99.8267 37.8565 99.5152 38.1518 99.2788 38.4822C99.0463 38.8134 98.9155 39.1583 98.8864 39.517C98.8612 39.8764 98.966 40.2305 99.2008 40.5793Z" fill="white"/>
<path d="M102.082 47.5156C101.819 46.9426 101.718 46.3901 101.78 45.8583C101.846 45.3278 102.055 44.8453 102.409 44.4107C102.766 43.9776 103.25 43.621 103.859 43.341C104.468 43.061 105.056 42.9253 105.623 42.9337C106.193 42.9436 106.701 43.0887 107.145 43.369C107.594 43.6506 107.941 44.0599 108.188 44.5969C108.33 44.9066 108.419 45.2362 108.455 45.5857C108.49 45.9352 108.449 46.2872 108.331 46.6418C108.215 46.9952 108.001 47.3326 107.689 47.6542C107.377 47.9757 106.944 48.264 106.389 48.5191L106.002 48.697L103.895 44.1125L104.685 43.7495L106.364 47.4047C106.7 47.2505 106.969 47.0458 107.17 46.7905C107.373 46.5379 107.494 46.2539 107.534 45.9387C107.575 45.6261 107.519 45.3045 107.367 44.9741C107.2 44.6101 106.965 44.3367 106.662 44.1539C106.363 43.9725 106.037 43.8766 105.686 43.8663C105.334 43.856 104.994 43.9262 104.666 44.0769L104.14 44.3189C103.69 44.5253 103.345 44.7777 103.104 45.0762C102.867 45.376 102.731 45.7027 102.696 46.0562C102.664 46.4085 102.733 46.7693 102.903 47.1384C103.013 47.3785 103.146 47.5799 103.302 47.7426C103.462 47.9068 103.643 48.0284 103.845 48.1075C104.05 48.1854 104.273 48.2156 104.515 48.1982L104.673 49.1949C104.331 49.2396 103.996 49.2044 103.668 49.0894C103.343 48.9732 103.043 48.7828 102.768 48.5183C102.496 48.2525 102.267 47.9183 102.082 47.5156Z" fill="white"/>
<path d="M103.705 50.5009L110.064 48.9493L110.294 49.8931L109.301 50.1356L109.321 50.2184C109.693 50.268 110.009 50.4176 110.268 50.6671C110.531 50.916 110.713 51.2474 110.814 51.6614C110.916 52.0809 110.906 52.4533 110.784 52.7785C110.665 53.1058 110.455 53.3895 110.153 53.6297L110.17 53.6959C110.538 53.7786 110.858 53.9592 111.131 54.2377C111.406 54.5156 111.6 54.8822 111.711 55.3376C111.849 55.9062 111.785 56.4146 111.517 56.8631C111.252 57.3108 110.745 57.626 109.998 57.8085L105.742 58.8469L105.503 57.8699L109.759 56.8314C110.228 56.717 110.532 56.5068 110.671 56.201C110.81 55.8951 110.837 55.5683 110.752 55.2206C110.643 54.7735 110.423 54.4601 110.093 54.2805C109.765 54.1001 109.396 54.0602 108.985 54.1605L104.845 55.1707L104.602 54.1771L108.957 53.1144C109.319 53.0262 109.582 52.8378 109.745 52.5494C109.911 52.2602 109.949 51.9307 109.859 51.5609C109.797 51.307 109.672 51.0861 109.483 50.8983C109.294 50.7133 109.063 50.5825 108.79 50.5058C108.521 50.4313 108.23 50.432 107.918 50.5081L103.944 51.4779L103.705 50.5009Z" fill="white"/>
<path d="M103.409 61.6135C103.394 61.4437 103.395 61.2911 103.411 61.1556C103.425 61.0203 103.442 60.9261 103.463 60.8729L104.369 61.0489C104.328 61.2978 104.325 61.5148 104.358 61.7001C104.392 61.8853 104.49 62.0434 104.653 62.1744C104.813 62.3084 105.064 62.4215 105.406 62.5137L105.932 62.655L112.271 59.66L112.368 60.7466L107.333 63.0094L107.339 63.0773L112.694 64.4139L112.791 65.5005L105.074 63.3989C104.726 63.3044 104.434 63.175 104.197 63.0108C103.957 62.8468 103.772 62.6479 103.643 62.4141C103.514 62.1832 103.436 61.9163 103.409 61.6135Z" fill="white"/>
</svg>